ooooo ooo ooooo ooo o8o .oooooo. ooooo ooo oooooooooooo
`888' `8' `888b. `8' `"' d8P' `Y8b `888' `8' `888' `8
888 8 8 `88b. 8 oooo 888 888 888 8 888
888 8 8 `88b. 8 `888 888 888 888 8 888oooo8
888 8 8 `88b.8 888 888 888 888 8 888 "
`88. .8' 8 `888 888 `88b d88b `88. .8' 888 o
`YbodP' o8o `8 o888o `Y8bood8P'Ybd' `YbodP' o888ooooood8


.........why be the same as everyone else when YOU can be UNiQUE.........

General
Complete name : Violence Of Action 2012 DVDRip x264 AAC-UNiQUE.mp4
Format : MPEG-4
Format profile : Base Media
Codec ID : isom
File size : 1.39 GiB
Duration : 1h 30mn
Overall bit rate mode : Variable
Overall bit rate : 2 206 Kbps
Encoded date : UTC 2012-11-03 12:49:31

Video
ID : 1
Format : AVC
Format/Info : Advanced Video Codec
Format profile : High@L4.1
Format settings, CABAC : Yes
Format settings, ReFrames : 3 frames
Codec ID : avc1
Codec ID/Info : Advanced Video Coding
Duration : 1h 30mn
Bit rate mode : Variable
Bit rate : 1 862 Kbps
Maximum bit rate : 40.0 Mbps
Width : 720 pixels
Height : 400 pixels
Display aspect ratio : 16:9
Frame rate mode : Constant
Frame rate : 23.976 fps
Color space : YUV
Chroma subsampling : 4:2:0
Bit depth : 8 bits
Scan type : Progressive
Bits/(Pixel*Frame) : 0.270
Stream size : 1.18 GiB (84%)
Writing library : x264 core 128 r2216 198a7ea

Audio
ID : 2
Format : AAC
Format/Info : Advanced Audio Codec
Format profile : LC
Codec ID : 40
Duration : 1h 30mn
Bit rate mode : Variable
Bit rate : 341 Kbps
Maximum bit rate : 407 Kbps
Channel(s) : 6 channels
Channel positions : Front: L C R, Side: L R, LFE
Sampling rate : 48.0 KHz
Compression mode : Lossy
Stream size : 221 MiB (15%)
Language : English
Encoded date : UTC 2012-11-03 12:50:05

subtitles : Hardcoded for foreign parts (already on the vobs)

Source : DVD5 NTSC MASTER - Thanks!

MDB: http://www.imdb.com/title/tt2296471/

Storyline
Elijah Kane falls back onto his special forces past, re-emerging from the ashes 
of his destroyed SIU to once again work for the government.


Poster:

 
http://imgon.net/di-U90G.jpg


Screenshots:

 
http://imgon.net/di-KOC5.png

 
http://imgon.net/di-3MJS.png

 
http://imgon.net/di-AQLB.png


ENJOY!